<svg xmlns="http://www.w3.org/2000/svg" viewBox="0 0 187.333 145.427"><title>zerodata-no-dashboard</title><path d="M184.3,145.427H3.2a3.145,3.145,0,0,1-3.184-2.766,3.039,3.039,0,0,1,3.026-3.311h181.1a3.144,3.144,0,0,1,3.184,2.767A3.038,3.038,0,0,1,184.3,145.427Z" fill="#b2b2b2"/><polygon points="180.36 139.401 176.288 139.881 175.715 135.628 179.533 135.15 180.36 139.401" fill="#505050"/><path d="M180.994,142.133l-3.564.418-.127-.418a30.356,30.356,0,0,1-4.771,1.016,8.6,8.6,0,0,1-3.05,0,.563.563,0,0,1-.318-.418c0-1.317,5.533-2.458,6.805-4.253h.127a2.959,2.959,0,0,0,1.907.9,4.477,4.477,0,0,0,2.038-1.317C180.549,138.417,181.059,142.073,180.994,142.133Z" fill="#282828"/><polygon points="170.371 139.762 166.299 139.881 166.172 135.628 169.926 135.448 170.371 139.762" fill="#505050"/><path d="M170.817,142.551l-3.56.119-.127-.417a32.415,32.415,0,0,1-4.834.6,8.412,8.412,0,0,1-3.056-.239.7.7,0,0,1-.254-.42c.127-1.382,5.787-2.038,7.186-3.714h.127c.381.3.895,1.076,1.784,1.017a3.981,3.981,0,0,0,2.161-1.078C170.69,138.778,170.879,142.492,170.817,142.551Z" fill="#282828"/><polygon points="177.371 120.071 177.557 103.819 169.863 103.999 169.864 104.006 164.138 103.699 162.677 120.23 162.667 120.23 164.838 138.923 170.817 139.162 169.178 120.508 170.426 113.154 170.878 120.521 170.875 120.521 174.762 139.042 180.676 138.744 177.371 120.071" fill="#002050"/><polygon points="164.167 120.938 165.404 103.767 164.138 103.699 162.677 120.23 162.667 120.23 164.838 138.923 166.179 138.976 164.167 120.938" fill="#243eb2"/><polygon points="172.333 120.438 170.644 103.981 170.564 103.983 170.425 113.161 170.426 113.154 170.878 120.521 170.875 120.521 174.762 139.042 176.133 138.973 172.333 120.438" fill="#243eb2"/><polygon points="164.055 104.744 177.535 106.834 177.565 104.714 164.267 102.957 164.055 104.744"/><path d="M154.531,102.378a7.489,7.489,0,0,1-4.449,2.458c-1.212.358-1.719.059-1.276-.42-1.081.659-2.223.061-1.461-.417-.317.059-.954,0-1.081-.419-.127-.365.637-.543.891-.543-.254-.3-.318-.839.635-1.018a2.036,2.036,0,0,0,1.143-.539c-.889-.119-1.27-.478-1.081-.9,1.018-.061,2.295-.539,3.5-.6h.7l4.2-3.116,1.08,3.594Z" fill="#b98c5a"/><polygon points="155.676 102.856 153.333 99.771 162.25 91.938 165.854 95.606 155.676 102.856" fill="#2139b5"/><path d="M12.758,137.838l-.024.684,2.93,2.611-.028.808c-.009.249-.308.435-.6.435H8.6a1.082,1.082,0,0,1-1.127-1.205c.088-2.487.072-2.027.072-2.027l.03-.871.015-.435Z"/><path d="M16.336,86.208l7.329,4.651,4.367-3.67,2.028,2.584s-4.691,4.949-6.016,5.142c-.553.081-1.863.168-6.979-2.764C12.43,89.494,14.729,84.864,16.336,86.208Z" fill="#724aad"/><path d="M15.153,136.675l-3.053-.588c-.651,3.361-.772,3.765-.772,3.765a.514.514,0,0,0,.354.622c5.143,1.011,7.7,1.472,7.7,1.472a2.387,2.387,0,0,0,.229-.652c.084-.372.086-.907-.246-1.1a21.59,21.59,0,0,1-4.344-2.937Z"/><path d="M16.133,103.924s2.017,8.74,2.867,15.847c.267,2.235-4.28,18.442-4.28,18.442l-4.976-1.034,1.521-34.417Z" fill="#323232"/><path d="M6.687,103.614c-1.935,5.065-1.933,7.933-1.24,11.757S7.7,139.35,7.7,139.35l4.3-.1s2.078-28.319,1.93-29.973-.6-6.511-.6-6.511Z" fill="#3c3c3c"/><path d="M18.038,93.649c-.719-5.812-.578-7.595-2.646-7.785-1.467-.135-6.641,0-9.059,0S2.51,87.419,2.458,88.9,4.98,99.508,4.98,99.508l1.372,4.8h9.923S17.144,99.23,18.038,93.649Z" fill="#8867c8"/><path d="M9,107.287l7.5-1.625c-.016-.281-.141-.844-.206-1.35H6.375a18.628,18.628,0,0,0-.928,11.059C6.139,119.2,7.7,139.35,7.7,139.35l1.4-.028c-.314-5.663-.8-14.386-1.165-20.592C7.357,108.808,9,107.287,9,107.287Z" fill="#282828"/><polygon points="163.914 11.231 30.757 1.604 22.651 113.731 155.698 123.35 159.652 68.66 163.914 11.231" fill="#69afe5" fill-rule="evenodd"/><path d="M157.086,124.954,21.047,115.119,29.37,0,165.409,9.835ZM24.256,112.343l130.054,9.4L162.2,12.611,32.145,3.209Z" fill="#0086ad"/><rect x="102.24" y="38.24" width="0.999" height="1" transform="translate(-7.061 38.579) rotate(-20.576)" fill="#fff"/><path d="M105.443,38.259l-.352-.937,2.06-.773.352.936Zm4.118-1.548-.351-.936L111.269,35l.352.937Z" fill="#fff"/><polygon points="115.137 35.218 114.42 34.886 113.679 35.165 113.328 34.228 114.461 33.803 115.557 34.311 115.137 35.218" fill="#fff"/><path d="M126.368,40.406l-1.871-.864.42-.909,1.871.865Zm-3.743-1.729-1.872-.865.42-.908,1.872.865Zm-3.743-1.729-1.873-.865.42-.908,1.872.865Z" fill="#fff"/><polygon points="129.341 41.779 128.24 41.271 128.66 40.362 129.375 40.693 130.108 40.407 130.471 41.338 129.341 41.779" fill="#fff"/><path d="M132.283,40.632l-.363-.931,1.811-.706.363.931Zm3.623-1.412-.363-.931,1.811-.706.363.931Z" fill="#fff"/><polygon points="140.854 37.938 140.225 37.538 139.53 37.808 139.167 36.876 140.335 36.421 141.391 37.095 140.854 37.938" fill="#fff"/><path d="M146.656,41.632l-1.45-.923.537-.844,1.45.924Zm-2.9-1.847-1.451-.923.537-.844,1.451.923Z" fill="#fff"/><rect x="148.296" y="41.903" width="1" height="1" transform="matrix(0.537, -0.844, 0.844, 0.537, 33.122, 145.154)" fill="#fff"/><path d="M61.219,54.065c-.349-.006-.7-.022-1.053-.047s-.677-.059-1.012-.1l.123-.992c.317.039.639.071.961.095s.667.038,1,.044Zm2.073-.075-.09-1a18.009,18.009,0,0,0,1.943-.283l.2.981A19.208,19.208,0,0,1,63.292,53.99Zm-6.178-.44a18.777,18.777,0,0,1-1.987-.586l.334-.942a18.465,18.465,0,0,0,1.883.556Zm10.235-.378-.3-.953a17.91,17.91,0,0,0,1.835-.7l.405.915A19.037,19.037,0,0,1,67.349,53.172ZM53.212,52.164a19.074,19.074,0,0,1-1.816-1l.531-.848a17.977,17.977,0,0,0,1.72.951ZM71.133,51.5l-.5-.866a18.124,18.124,0,0,0,1.644-1.075l.592.807A19.568,19.568,0,0,1,71.133,51.5ZM49.7,49.967A19.04,19.04,0,0,1,48.146,48.6l.7-.714a18.514,18.514,0,0,0,1.476,1.3ZM74.47,49.05l-.673-.738a18.4,18.4,0,0,0,1.377-1.4l.75.661A19.506,19.506,0,0,1,74.47,49.05ZM46.745,47.069a19.24,19.24,0,0,1-1.227-1.67l.836-.547a18.543,18.543,0,0,0,1.164,1.583Zm30.463-1.125-.817-.577A17.911,17.911,0,0,0,77.435,43.7l.875.485A19.076,19.076,0,0,1,77.208,45.944Zm-32.73-2.337a19.146,19.146,0,0,1-.84-1.893l.934-.356a18.313,18.313,0,0,0,.8,1.8Zm34.737-1.285-.921-.386a18.443,18.443,0,0,0,.659-1.852l.959.284A18.989,18.989,0,0,1,79.215,42.322ZM43.007,39.738a19.4,19.4,0,0,1-.412-2.03l.991-.146a18.021,18.021,0,0,0,.389,1.925ZM80.39,38.352l-.984-.179a18.368,18.368,0,0,0,.246-1.949l.5-.036.495.092A19.414,19.414,0,0,1,80.39,38.352ZM42.407,35.644q-.013-.354-.013-.711,0-.676.047-1.361l1,.068c-.029.433-.045.864-.045,1.293q0,.337.013.672Zm37.28-1.456a18.165,18.165,0,0,0-.181-1.955l.988-.147a19.412,19.412,0,0,1,.193,2.063Zm-36.006-2.5-.984-.176a19.042,19.042,0,0,1,.476-2.017l.959.281A18.611,18.611,0,0,0,43.681,31.691Zm35.43-1.381a18.307,18.307,0,0,0-.6-1.871l.934-.357a19.546,19.546,0,0,1,.635,1.972ZM44.789,27.927l-.924-.385a19.124,19.124,0,0,1,.9-1.868l.875.484A18,18,0,0,0,44.789,27.927Zm32.923-1.281a18.343,18.343,0,0,0-.992-1.7l.836-.55a19.509,19.509,0,0,1,1.044,1.79ZM46.682,24.49l-.818-.574a18.875,18.875,0,0,1,1.283-1.63l.75.661A17.953,17.953,0,0,0,46.682,24.49Zm28.871-1.122a18.4,18.4,0,0,0-1.33-1.447l.7-.714a19.649,19.649,0,0,1,1.4,1.524ZM49.272,21.542l-.676-.737a19.219,19.219,0,0,1,1.6-1.317l.592.8A18.3,18.3,0,0,0,49.272,21.542Zm23.475-.916a18.234,18.234,0,0,0-1.61-1.128l.53-.849a19.35,19.35,0,0,1,1.7,1.19ZM52.432,19.215l-.5-.864a19.2,19.2,0,0,1,1.846-.944l.406.914A18.2,18.2,0,0,0,52.432,19.215Zm16.983-.664A17.8,17.8,0,0,0,67.6,17.8l.334-.943a19.3,19.3,0,0,1,1.914.8Zm-13.4-.93-.3-.952a19.067,19.067,0,0,1,2.005-.524l.2.98A17.887,17.887,0,0,0,56.014,17.621Zm9.7-.375a18.068,18.068,0,0,0-1.934-.346l.123-.992a19.3,19.3,0,0,1,2.04.364Zm-5.857-.408-.092-1a16.016,16.016,0,0,1,1.762-.08l.309,0-.014,1-.3,0h-.015C60.965,16.762,60.408,16.788,59.858,16.838Z" fill="#fff"/><rect x="62.368" y="16.311" width="1" height="0.999" transform="translate(43.067 78.801) rotate(-87.255)" fill="#fff"/><path d="M62.535,34.138l-1-.048.1-2.1,1,.048Zm.2-4.2-1-.048.1-2.1,1,.047Zm.2-4.2-1-.048.1-2.1,1,.048Zm.2-4.2-1-.048.1-2.1,1,.048Z" fill="#fff"/><polygon points="61.328 38.434 61.435 36.191 62.2 36.228 62.268 36.163 62.336 36.234 62.433 36.239 62.429 36.333 62.956 36.888 61.328 38.434" fill="#fff"/><path d="M64.362,35.554l-.688-.725,1.407-1.335.687.726Zm2.813-2.668-.687-.726,1.406-1.334.688.725Zm2.813-2.669-.688-.725,1.407-1.335.687.726ZM72.8,27.549l-.687-.726,1.406-1.334.688.725Z" fill="#fff"/><rect x="75.133" y="23.673" width="1" height="1" transform="translate(4.105 58.646) rotate(-43.456)" fill="#fff"/><rect x="45.322" y="93.932" width="1" height="1.001" transform="translate(-51.635 133.41) rotate(-85.914)" fill="#fff"/><path d="M46.5,92.07,45.5,92l.137-1.9,1,.072Zm.274-3.8-1-.073.138-1.9,1,.072Zm.276-3.8-1-.072.137-1.9,1,.072Z" fill="#fff"/><rect x="46.356" y="79.636" width="1" height="1.001" transform="matrix(0.072, -0.997, 0.997, 0.072, -36.455, 121.083)" fill="#fff"/><rect x="53.302" y="94.509" width="1" height="1.001" transform="matrix(0.072, -0.997, 0.997, 0.072, -44.845, 141.809)" fill="#fff"/><path d="M54.474,92.647l-1-.072.138-1.9,1,.072Zm.275-3.8-1-.072.137-1.9,1,.073Zm.274-3.8-1-.072.138-1.9,1,.072Z" fill="#fff"/><rect x="54.336" y="80.213" width="1" height="1.001" transform="matrix(0.072, -0.997, 0.997, 0.072, -29.627, 129.577)" fill="#fff"/><rect x="60.284" y="95.014" width="1" height="1.001" transform="translate(-38.819 149.338) rotate(-85.914)" fill="#fff"/><path d="M61.456,93.152l-1-.072.137-1.9,1,.072Zm.274-3.8-1-.072.138-1.9,1,.073Zm.276-3.8-1-.073.138-1.9,1,.072Z" fill="#fff"/><rect x="61.317" y="80.718" width="1" height="1.001" transform="matrix(0.072, -0.997, 0.997, 0.072, -23.653, 137.008)" fill="#fff"/><rect x="68.262" y="95.591" width="1" height="1.001" transform="matrix(0.072, -0.997, 0.997, 0.072, -32.044, 157.734)" fill="#fff"/><path d="M69.435,93.729l-1-.073.138-1.9,1,.073Zm.275-3.8-1-.073.137-1.9,1,.072Zm.275-3.8-1-.072.138-1.9,1,.072Z" fill="#fff"/><rect x="69.297" y="81.295" width="1" height="1.001" transform="matrix(0.072, -0.997, 0.997, 0.072, -16.825, 145.502)" fill="#fff"/><rect x="76.242" y="96.167" width="1" height="1.001" transform="matrix(0.072, -0.997, 0.997, 0.072, -25.216, 166.228)" fill="#fff"/><path d="M77.414,94.306l-1-.073.137-1.9,1,.073Zm.274-3.8-1-.072.138-1.9,1,.072Zm.276-3.8-1-.073.138-1.9,1,.073Z" fill="#fff"/><rect x="77.275" y="81.871" width="1" height="1.001" transform="matrix(0.072, -0.997, 0.997, 0.072, -9.998, 153.995)" fill="#fff"/><polygon points="87.095 71.348 86.097 71.277 86.133 70.777 85.634 70.741 85.707 69.744 87.202 69.853 87.095 71.348" fill="#fff"/><path d="M83.639,70.6l-1.995-.144.072-1,2,.144Zm-3.989-.288-2-.144.072-1,1.995.145Zm-3.99-.288-1.994-.145.072-1,1.994.144Zm-3.989-.289-2-.144.073-1,1.995.144Zm-3.99-.289L65.686,69.3l.072-1,2,.144Zm-3.99-.288L61.7,69.011l.072-1,1.994.144ZM59.7,68.867l-1.995-.145.072-1,1.995.145Zm-3.989-.289-2-.144.073-1,1.995.144Zm-3.991-.288-1.994-.144.072-1,2,.144ZM47.733,68l-1.995-.144.072-1L47.805,67Zm-3.989-.288-1.995-.144.072-1,2,.144Z" fill="#fff"/><polygon points="39.22 67.887 38.222 67.815 38.33 66.319 39.826 66.427 39.754 67.424 39.256 67.388 39.22 67.887" fill="#fff"/><path d="M37.048,97.926l-1-.072.136-1.877,1,.072Zm.271-3.755-1-.072.136-1.877,1,.072Zm.271-3.754-1-.073.136-1.877,1,.072Zm.272-3.755-1-.073L37,84.712l1,.072Zm.271-3.755-1-.073.136-1.877,1,.072Zm.272-3.755-1-.072.136-1.878,1,.072Zm.271-3.755-1-.072.136-1.878,1,.073Zm.272-3.755-1-.072.136-1.878,1,.073Z" fill="#fff"/><polygon points="37.302 101.336 35.807 101.228 35.914 99.732 36.912 99.804 36.876 100.303 37.375 100.339 37.302 101.336" fill="#fff"/><path d="M81.188,104.508l-2-.144.072-1,2,.144ZM77.2,104.22l-2-.144.072-1,2,.144Zm-3.99-.288-1.994-.144.072-1,1.994.144Zm-3.99-.289-1.995-.144.073-1,2,.144Zm-3.989-.288-2-.145.072-1,2,.145Zm-3.99-.289-1.994-.144.072-1,1.994.144Zm-3.989-.288-1.995-.144.072-1,1.995.144Zm-3.99-.289-2-.144.073-1,2,.144Zm-3.99-.288-1.994-.144.072-1,1.994.144Zm-3.989-.288-1.995-.144.072-1,1.995.145Zm-3.989-.289L39.3,101.48l.072-1,2,.144Z" fill="#fff"/><polygon points="84.679 104.761 83.183 104.653 83.256 103.656 83.754 103.692 83.789 103.193 84.787 103.265 84.679 104.761" fill="#fff"/><path d="M84.924,101.388l-1-.073.136-1.877,1,.072Zm.271-3.755-1-.072.136-1.878,1,.072Zm.271-3.755-1-.072.136-1.878,1,.072Zm.272-3.755-1-.072.136-1.878,1,.073Zm.271-3.755-1-.072.136-1.878,1,.073Zm.272-3.755-1-.072.136-1.877,1,.072Zm.271-3.755-1-.072.136-1.877,1,.072Zm.272-3.754-1-.073.136-1.877,1,.072Z" fill="#fff"/><rect x="106.465" y="80.305" width="1" height="1.001" transform="matrix(0.072, -0.997, 0.997, 0.072, 18.645, 181.655)" fill="#fff"/><path d="M136.285,83.426l-2.062-.149.073-1,2.061.149Zm-4.123-.3-2.061-.149.073-1,2.06.149Zm-4.122-.3-2.062-.15.072-1,2.062.149Zm-4.123-.3-2.061-.149.072-1,2.061.149Zm-4.122-.3-2.062-.149.072-1,2.062.149Zm-4.123-.3-2.061-.15.072-1,2.061.149Zm-4.123-.3-2.061-.149.072-1,2.062.149Z" fill="#fff"/><rect x="138.381" y="82.613" width="1" height="1" transform="matrix(0.072, -0.997, 0.997, 0.072, 45.946, 215.623)" fill="#fff"/><rect x="105.888" y="88.285" width="1" height="1.001" transform="translate(10.2 188.529) rotate(-85.886)" fill="#fff"/><path d="M135.709,91.406l-2.062-.149.072-1,2.062.149Zm-4.123-.3-2.061-.149.072-1,2.061.149Zm-4.122-.3-2.062-.149.072-1,2.062.149Zm-4.124-.3-2.06-.149.072-1,2.061.149Zm-4.122-.3-2.061-.149.072-1,2.062.149Zm-4.123-.3-2.06-.149.072-1,2.061.149Zm-4.122-.3-2.061-.149.072-1,2.062.149Z" fill="#fff"/><rect x="137.805" y="90.592" width="1" height="1.001" transform="matrix(0.072, -0.997, 0.997, 0.072, 37.462, 222.457)" fill="#fff"/><rect x="105.383" y="95.266" width="1" height="1.001" transform="matrix(0.072, -0.997, 0.997, 0.072, 2.719, 194.457)" fill="#fff"/><path d="M135.2,98.388l-2.062-.149.073-1,2.061.149Zm-4.123-.3-2.061-.149.072-1,2.061.149Zm-4.122-.3-2.062-.149.072-1,2.062.148Zm-4.123-.3-2.061-.149.072-1,2.061.149Zm-4.122-.3-2.062-.149.072-1,2.062.149Zm-4.123-.3-2.061-.148.072-1,2.061.149Zm-4.123-.3-2.061-.149.072-1,2.062.149Z" fill="#fff"/><rect x="137.299" y="97.574" width="1" height="1" transform="matrix(0.072, -0.997, 0.997, 0.072, 30.02, 228.423)" fill="#fff"/><polygon points="147.936 75.747 146.938 75.675 146.974 75.176 146.475 75.14 146.548 74.143 148.045 74.25 147.936 75.747" fill="#fff"/><path d="M144.481,75l-2-.144.072-1,2,.145Zm-3.989-.289-1.995-.144.072-1,2,.144Zm-3.99-.288-2-.145.073-1,1.994.145Zm-3.99-.289-2-.144.073-1,2,.144Zm-3.989-.288-1.995-.144.072-1,2,.144Zm-3.99-.288-1.994-.145.072-1,1.994.145Zm-3.989-.289-1.995-.144.072-1,2,.144Zm-3.99-.288-2-.144.073-1,1.995.144Zm-3.99-.289-1.994-.144.072-1,1.994.144Zm-3.989-.288-2-.145.072-1,2,.145Zm-3.989-.289-2-.144.073-1,2,.144Z" fill="#fff"/><polygon points="100.061 72.286 99.063 72.214 99.171 70.718 100.668 70.826 100.595 71.823 100.096 71.787 100.061 72.286" fill="#fff"/><path d="M97.889,102.325l-1-.073.136-1.877,1,.072Zm.272-3.755-1-.072L97.3,96.62l1,.072Zm.271-3.755-1-.072.136-1.878,1,.073ZM98.7,91.06l-1-.072.135-1.878,1,.073Zm.271-3.755-1-.072.136-1.878,1,.073Zm.272-3.755-1-.072.135-1.877,1,.072Zm.271-3.755-1-.072.136-1.877,1,.072Zm.272-3.754-1-.073.135-1.877,1,.072Z" fill="#fff"/><polygon points="98.144 105.734 96.647 105.627 96.756 104.13 97.754 104.203 97.717 104.701 98.216 104.737 98.144 105.734" fill="#fff"/><path d="M142.029,108.907l-2-.144.072-1,2,.144Zm-3.989-.288-2-.144.072-1,2,.144Zm-3.991-.288-1.994-.145.073-1,1.994.144Zm-3.989-.289-2-.145.072-1,2,.145Zm-3.989-.289-2-.144.072-1,2,.144Zm-3.99-.288-1.994-.144.072-1,1.994.144Zm-3.99-.288-1.995-.145.073-1,2,.145Zm-3.989-.289-2-.144.072-1,2,.144Zm-3.99-.288-1.994-.144.072-1,1.994.145Zm-3.989-.289-2-.144.072-1,1.995.144Zm-3.99-.289-1.995-.144.073-1,2,.144Z" fill="#fff"/><polygon points="145.52 109.16 144.024 109.051 144.096 108.054 144.594 108.09 144.631 107.591 145.629 107.664 145.52 109.16" fill="#fff"/><path d="M145.764,105.786l-1-.072.136-1.878,1,.073Zm.272-3.755-1-.072.136-1.877,1,.072Zm.271-3.755-1-.072.136-1.877,1,.072Zm.272-3.755-1-.072.135-1.877,1,.072Zm.271-3.754-1-.073.136-1.877,1,.072Zm.272-3.755-1-.073.135-1.877,1,.072Zm.271-3.755-1-.072.136-1.878,1,.072Zm.272-3.755-1-.072.135-1.878,1,.073Z" fill="#fff"/><polygon points="150.616 24.808 149.618 24.735 149.654 24.237 149.156 24.201 149.228 23.204 150.724 23.312 150.616 24.808" fill="#fff"/><path d="M147.205,24.06l-1.951-.142.072-1,1.951.142Zm-3.9-.283-1.951-.141.073-1,1.951.141Zm-3.9-.282-1.951-.141.072-1,1.951.141Zm-3.9-.282-1.951-.141.072-1,1.951.141Zm-3.9-.282-1.951-.141.073-1,1.951.141Zm-3.9-.282-1.951-.141.072-1,1.951.141Zm-3.9-.282-1.951-.141.072-1,1.951.141Zm-3.9-.283-1.951-.141.073-1,1.951.141Zm-3.9-.282-1.951-.141.072-1,1.951.141Zm-3.9-.282-1.951-.141.072-1,1.951.141Zm-3.9-.282-1.952-.141.073-1,1.952.141Z" fill="#fff"/><polygon points="103.738 21.418 102.74 21.346 102.848 19.851 104.345 19.958 104.273 20.956 103.774 20.92 103.738 21.418" fill="#fff"/><path d="M101.279,55.435l-1-.072.137-1.89,1,.072Zm.273-3.779-1-.073.137-1.889,1,.072Zm.273-3.78-1-.072.137-1.89,1,.072ZM102.1,44.1l-1-.073.137-1.89,1,.073Zm.274-3.78-1-.072.136-1.89,1,.072Zm.273-3.78-1-.072.137-1.89,1,.072Zm.274-3.78-1-.071.135-1.89,1,.071Zm.272-3.779-1-.072.137-1.89,1,.072Zm.274-3.78-1-.072.137-1.89,1,.073Z" fill="#fff"/><polygon points="101.533 58.857 100.036 58.749 100.144 57.252 101.142 57.325 101.106 57.824 101.605 57.86 101.533 58.857" fill="#fff"/><path d="M144.465,61.96l-1.953-.14.073-1,1.952.14Zm-3.9-.281-1.951-.141.072-1,1.951.141Zm-3.9-.283-1.951-.141.072-1,1.951.141Zm-3.9-.282-1.952-.141.073-1,1.951.141Zm-3.9-.282-1.951-.141.072-1,1.951.141Zm-3.9-.282L123,60.409l.072-1,1.951.141Zm-3.9-.282-1.952-.142.073-1,1.951.142Zm-3.9-.283-1.951-.14.072-1,1.951.14Zm-3.9-.281-1.951-.141.072-1,1.951.142Zm-3.9-.283-1.952-.141.073-1,1.951.141Zm-3.9-.282L103.484,59l.072-1,1.951.141Z" fill="#fff"/><polygon points="147.912 62.21 146.416 62.102 146.488 61.104 146.986 61.141 147.022 60.642 148.02 60.714 147.912 62.21" fill="#fff"/><path d="M148.157,58.824l-1-.072.137-1.89,1,.073Zm.273-3.78-1-.072.137-1.889,1,.072Zm.274-3.779-1-.072.135-1.89,1,.072Zm.272-3.78-1-.072.137-1.89,1,.073Zm.274-3.779-1-.073.136-1.889,1,.072Zm.273-3.78-1-.072.137-1.89,1,.072Zm.274-3.78-1-.072.136-1.889,1,.072Zm.272-3.779-1-.073.137-1.889,1,.072Zm.273-3.78-1-.072.137-1.89,1,.073Z" fill="#fff"/><path d="M12.7,81.516a5.074,5.074,0,0,0,2.209-.362c.02.187.042.39.065.595l-.028.007a4.168,4.168,0,0,1-2.246-.24" fill="#fff"/><path d="M20.75,94.178,22.526,91.9l2.943-1.458s.387.535.031.833-1.427,1.074-1.427,1.074a3.441,3.441,0,0,0,.781.219C24.908,92.541,26,92.1,26,92.1l.015-.549.647.283s.2,2.415-.1,2.857c-.656.953-5.218,1.766-5.218,1.766Z" fill="#bb9167"/><path d="M3.917,91.4c1.634,1.536,6.374,5.725,6.958,6.25a3.648,3.648,0,0,0,3.667.917c1.375-.292,7.823-1.833,7.823-1.833l-.99-3.625-7.667,1.208s-5.67-5.161-7.333-6.792C4.25,85.438.458,88.146,3.917,91.4Z" fill="#724aad"/><path d="M13.794,77.038c-.875.709-4.019,4.512-4.019,4.512a15.277,15.277,0,0,0-.51,2.974l-4.11-.156A11.094,11.094,0,0,1,3.53,78.793a7.168,7.168,0,0,1,6.852-7.967c2.476-.132,4.781,1.2,4.87,2.9a3.075,3.075,0,0,1-1.458,3.31" fill="#871a1a"/><path d="M13.392,79.607,8.12,79.465,7.9,86.317h0v.005a2.666,2.666,0,0,0,2.6,2.43,2.615,2.615,0,0,0,2.675-2.288v0h0Z" fill="#bb9167"/><path d="M13.208,85.34l.189-6.36-5.271-.143L8.01,82.476c.577,1.55,2.466,2.8,5.2,2.864" fill="#a07657"/><path d="M14.611,74.366a19.026,19.026,0,0,1,.551,2.939,3.358,3.358,0,0,0,1.16,1.943c.508.374-.037.641-.355.658s-.417.164-.4.589.085,1.63.121,2.3-.175,1.417-1.554,1.49c-1.8.1-4-.311-5.131-1.495a3.262,3.262,0,0,1-.938-2.52s-1.126-.1-1.139-1.555c-.015-1.634,1.936-1.631,2.816-1.074,1.232-.172,4.114-1.356,4.864-3.278" fill="#bb9167"/><path d="M14.075,78.191a.39.39,0,1,1-.41-.369.39.39,0,0,1,.41.369"/><path d="M14.835,75.242l0-.007c-.144-.523-.226-.869-.226-.869-.751,1.922-3.632,3.106-4.865,3.278.765.386,3.691.052,5.088-2.4" fill="#a07657"/><path d="M8.07,80.273a7.911,7.911,0,0,0,1,4.244l-3.7-.141.344-3.912Z" fill="#871a1a"/><path d="M13.257,81.429a5.371,5.371,0,0,0,2.351-.252c.01.2.021.413.033.631l-.029.006a4.407,4.407,0,0,1-2.355-.385" fill="#fff"/><polygon points="166.934 94.111 161.532 92.855 164.457 82.011 171.325 83.447 166.934 94.111" fill="#2139b5"/><path d="M171.325,83.447a3.231,3.231,0,0,0-2.542-4.014,3.529,3.529,0,0,0-4.264,2.338,3.273,3.273,0,0,0,2.542,4.014A3.527,3.527,0,0,0,171.325,83.447Z" fill="#2139b5"/><path d="M162.423,91.414a2.546,2.546,0,0,0-.446,3.714,2.853,2.853,0,0,0,3.877.478,2.558,2.558,0,0,0,.508-3.714A2.946,2.946,0,0,0,162.423,91.414Z" fill="#2139b5"/><polygon points="160.828 89.439 166.745 90.575 166.235 94.35 159.748 92.496 160.828 89.439" fill="#b98c5a"/><path d="M180.168,84.225,177.43,80.39l-6.041-1.735-4.259.717-2.738,3.895-.826,20.371,14.372,1.8A142.223,142.223,0,0,1,180.168,84.225Z" fill="#2139b5"/><path d="M177.241,80.331a3.479,3.479,0,0,0-3.941,2.816,3.173,3.173,0,0,0-.024.362l-.04,0-.958,11.264,5.6.6,2.357-11.261A3.436,3.436,0,0,0,177.241,80.331Z" fill="#2139b5"/><polygon points="162.042 93.992 163.12 89.68 175.715 92.316 174.508 97.466 162.042 93.992" fill="#2139b5"/><path d="M169.418,79.133V76.317h5.025v2.816c-.062.9-.7,1.86-2.546,1.86C170.117,80.993,169.418,80.031,169.418,79.133Z" fill="#b98c5a"/><path d="M174.127,76.556c-.827,1.68-2.3,2.279-4.709,2.279v-2.7l4.771-.481Z" fill="#8b6946"/><path d="M160.129,92.316c0-.239-.19-.424-.508-.424l-1.843.061a.455.455,0,1,0,0,.9l1.843-.061A.453.453,0,0,0,160.129,92.316Z" fill="#db9c94"/><path d="M161.47,89.68c.062-.48-2.93-2.28-2.93-2.28a.642.642,0,0,0-.889.061.607.607,0,0,0,.063.782l.849.663-1.738-.363a.712.712,0,0,0-.826.478.657.657,0,0,0,.508.718l.031.006-.2-.028a.589.589,0,0,0-.722.5.62.62,0,0,0,.537.686l.145.023c-.254.05-.472.208-.472.455a.559.559,0,0,0,.51.6l.182.016-.083.082a.459.459,0,0,0,.253.718c1.016.239,3.6.53,3.794-.426a11.185,11.185,0,0,0,.264-1.768l.725.566a.622.622,0,0,0,.826-.061c.062-.058.127-.119.127-.178C162.485,90.7,161.4,90.1,161.47,89.68Z" fill="#b98c5a"/><path d="M158.859,89.08a2.529,2.529,0,0,1,2.737.539,1.948,1.948,0,0,1-.83,1.256Z" fill="#b98c5a"/><path d="M162.042,93.992l12.466,3.474c1.461.3,2.755.059,3.3-1.979.439-1.632,2.422-11.381,2.422-11.381a3.156,3.156,0,0,0-.635-2.395c.57.6.01,2.282-.181,3.06,0,0-2.394,9.981-2.459,10.042-.445,1.56-1.1,1.908-2.5,1.667-.127,0-12.257-3.248-12.257-3.248Z" fill="#002050"/><path d="M171.055,70.272l-.03-.093A.068.068,0,0,1,171.055,70.272Z" fill="#f9ccac"/><path d="M166.716,76.825l.358-2.136.206-.829a.249.249,0,0,0-.238-.281l-.586-.072c-.181-.1-.267-.226-.17-.409l.875-1.939a1.7,1.7,0,0,0,.2-.517l.5-2.692s3.558-1.133,4.3-.042.366,1.359.509,1.824c.109.523.121.064,1.417-.178,1.362-.209,4.436,3.52,1.7,6.032-1.571,1.493-4.176,2.443-8.56,1.9A.56.56,0,0,1,166.716,76.825Z" fill="#b98c5a"/><path d="M171.285,68.378a.746.746,0,0,1,.381.744l-.208.977a1.432,1.432,0,0,0-.235-.435,1.488,1.488,0,0,0-.6-.476h0a5.253,5.253,0,0,0-.974-.362,5.247,5.247,0,0,1-1.1-.274,2.555,2.555,0,0,1-.4-.135.885.885,0,0,1-.332-.253,5.362,5.362,0,0,0,1.9.232l1.2-.059A.513.513,0,0,1,171.285,68.378Z" fill="#8b6946"/><path d="M167.919,75.294l.06.031a3.768,3.768,0,0,0,1.734-.481.259.259,0,0,0,.038-.214.252.252,0,0,0-.216-.036,2.62,2.62,0,0,1-1.549.425c-.091.028-.185.057-.155.149C167.8,75.229,167.858,75.261,167.919,75.294Z" fill="#8b6946"/><path d="M168.335,65.877a3.936,3.936,0,0,1,.762-1c.032-.06.126-.088.217-.116h0A11.5,11.5,0,0,1,175.4,65.9c1.55.9,1.213,2.119,1.213,2.119a1.139,1.139,0,0,1,1.358.954s.742,4.9-3.068,7.384a2.011,2.011,0,0,1-1.568-2.463c.015-.613.509-.815.863-1.331a1.156,1.156,0,0,0-.421-1.856c-.947-.27-1.432.792-1.631,1.314-.064.121-.157.148-.311.145l-.732-.234.562-2.813a.683.683,0,0,0-.75-.785l-1.2.059a4.167,4.167,0,0,1-1.96-.263A4.981,4.981,0,0,1,168.335,65.877Z" fill="#53321a"/><path d="M176.307,66.695a2.367,2.367,0,0,0-.847-.76A2.367,2.367,0,0,1,176.307,66.695Z" fill="#ffa233"/><path d="M175.277,65.837l.124.066h0l.059.032h0a2.367,2.367,0,0,1,.847.76l.06.032h0a1.385,1.385,0,0,1,.23.742,2.548,2.548,0,0,0-.665-.508l-.125-.067a12.121,12.121,0,0,0-6-1.163h0c-.093.027-.158.15-.249.178a3.592,3.592,0,0,0-.7,1.025,3.5,3.5,0,0,0-.495,1.367,2.048,2.048,0,0,1-.608-.168h0a4.923,4.923,0,0,1,.544-2.195l.033-.061a3.936,3.936,0,0,1,.762-1c.032-.06.126-.088.217-.116h0A11.553,11.553,0,0,1,175.277,65.837Z" fill="#8b6946"/><path d="M168.759,71.077a.393.393,0,0,0,.3.468c.18.1.4-.022.467-.3a.3.3,0,0,0-.235-.435A.513.513,0,0,0,168.759,71.077Z"/><path d="M175.708,81.23s-1.071.663-1.416,3.291-1.084,7.25-1.084,7.25l-10.177-1.925-.2.842s8.935,1.8,9.75,2c1,.25,1.584-.167,1.75-1.417C174.489,90.1,175.708,81.23,175.708,81.23Z" fill="#3963a3"/></svg>