<?xml version="1.0" encoding="utf-8"?>
<!-- Generator: Adobe Illustrator 20.0.0, SVG Export Plug-In . SVG Version: 6.00 Build 0)  -->
<svg version="1.1" id="Layer_1" xmlns="http://www.w3.org/2000/svg" xmlns:xlink="http://www.w3.org/1999/xlink" x="0px" y="0px"
	 viewBox="0 0 320 240" style="enable-background:new 0 0 320 240;" xml:space="preserve">
<style type="text/css">
	.st0{opacity:0.2;fill:#783C91;}
	.st1{clip-path:url(#SVGID_2_);}
	.st2{fill-rule:evenodd;clip-rule:evenodd;fill:#221E1E;}
	.st3{fill-rule:evenodd;clip-rule:evenodd;fill:#A67B53;}
	.st4{clip-path:url(#SVGID_4_);fill-rule:evenodd;clip-rule:evenodd;fill:#8C623D;}
	.st5{fill-rule:evenodd;clip-rule:evenodd;fill:#6D5334;}
	.st6{fill-rule:evenodd;clip-rule:evenodd;fill:#C5A172;}
	.st7{clip-path:url(#SVGID_6_);fill-rule:evenodd;clip-rule:evenodd;fill:#98774C;}
	.st8{fill-rule:evenodd;clip-rule:evenodd;fill:#98774C;}
	.st9{fill-rule:evenodd;clip-rule:evenodd;fill:#3A3938;}
	.st10{fill:#D2E8F3;}
	.st11{clip-path:url(#SVGID_8_);}
	.st12{fill-rule:evenodd;clip-rule:evenodd;fill:#CBAE8B;}
	.st13{clip-path:url(#SVGID_10_);fill-rule:evenodd;clip-rule:evenodd;fill:#AC8B6C;}
	.st14{fill-rule:evenodd;clip-rule:evenodd;fill:#783C91;}
	.st15{fill-rule:evenodd;clip-rule:evenodd;fill:#F2C920;}
	.st16{clip-path:url(#SVGID_12_);fill-rule:evenodd;clip-rule:evenodd;fill:#A98A65;}
	.st17{fill-rule:evenodd;clip-rule:evenodd;fill:#EECF53;}
	.st18{opacity:0.3;fill:#F2C920;}
	.st19{clip-path:url(#SVGID_14_);}
	.st20{clip-path:url(#SVGID_16_);fill-rule:evenodd;clip-rule:evenodd;fill:#98774C;}
	.st21{fill-rule:evenodd;clip-rule:evenodd;fill:#7F7065;}
	.st22{clip-path:url(#SVGID_18_);fill-rule:evenodd;clip-rule:evenodd;fill:#7F7065;}
	.st23{fill-rule:evenodd;clip-rule:evenodd;fill:#7F5C3D;}
	.st24{opacity:0.3;clip-path:url(#SVGID_20_);fill-rule:evenodd;clip-rule:evenodd;fill:#221E1E;}
	.st25{opacity:0.5;fill:#009ACA;}
	.st26{fill:#009ACA;}
	.st27{fill:#F5A61C;}
	.st28{opacity:0.2;}
	.st29{fill:#BAD6DC;}
	.st30{clip-path:url(#SVGID_22_);}
	.st31{fill:#FFFFFF;}
	.st32{fill:#EBEAEC;}
	.st33{fill:#009BCB;}
	.st34{fill:#C1C0C0;}
</style>
<g>
	<path class="st0" d="M91.9,76.1c2.9-5.1,4.5-11.1,4.5-17.4c0-19.6-15.9-35.6-35.6-35.6c-19.6,0-35.6,15.9-35.6,35.6
		c0,6.3,1.7,12.2,4.5,17.4H91.9z"/>
	<g>
		<defs>
			<path id="SVGID_1_" d="M91.9,76.1c2.9-5.1,4.5-11.1,4.5-17.4c0-19.6-15.9-35.6-35.6-35.6c-19.6,0-35.6,15.9-35.6,35.6
				c0,6.3,1.7,12.2,4.5,17.4H91.9z"/>
		</defs>
		<clipPath id="SVGID_2_">
			<use xlink:href="#SVGID_1_"  style="overflow:visible;"/>
		</clipPath>
		<g class="st1">
			<g>
				<path class="st2" d="M51,44v19.7h6.7V45.6c0-3.9-3.5-10.2-11.8-10.2s-12.3,5.9-12.3,12.3V64h7V42.8L51,44z"/>
				<rect x="40" y="56.7" class="st3" width="10.9" height="17.8"/>
				<g>
					<defs>
						<rect id="SVGID_3_" x="40" y="56.7" width="10.9" height="17.8"/>
					</defs>
					<clipPath id="SVGID_4_">
						<use xlink:href="#SVGID_3_"  style="overflow:visible;"/>
					</clipPath>
					<path class="st4" d="M45.2,67.4c3,0,9.5-5.1,9.5-12.6s-2.5-13.7-9.5-13.7c-6.5,0-8.9,6.3-8.9,13.7S42.2,67.4,45.2,67.4"/>
				</g>
				<path class="st3" d="M45.2,65c3,0,9.5-6.3,9.5-13.7c0-7.4-2.5-13.7-9.5-13.7c-6.5,0-8.9,6.3-8.9,13.7C36.3,58.7,42.2,65,45.2,65
					"/>
				<path class="st2" d="M51.4,44.2C48.7,51.6,35.3,54,35.3,54s-1.1-12.9,5.8-16.2C50,33.6,51.4,44.2,51.4,44.2"/>
				<path class="st2" d="M26,76.3c0-6,8.6-7.1,14.1-8.7c2.7,2.2,4,3.3,5.6,3.3c2.2,0,3.3-1.1,5.5-3.3c6,1.6,14.1,2.7,14.1,8.7v5.5
					c0,8.2,0,8.2-2.7,8.2H29.2c-3.3,0-3.3,0-3.3-8.2V76.3z"/>
				<path class="st2" d="M55.5,50.6c-4.4-2.2-8-8.3-8-8.3l-0.8-6.2c0,0,6.6,1.8,8,6C56.2,46.3,55.5,50.6,55.5,50.6"/>
			</g>
			<g>
				<rect x="69.5" y="59" class="st5" width="10.9" height="23"/>
				<rect x="69.5" y="58.8" class="st6" width="10.9" height="23"/>
				<g>
					<defs>
						<rect id="SVGID_5_" x="69.5" y="58.8" width="10.9" height="23"/>
					</defs>
					<clipPath id="SVGID_6_">
						<use xlink:href="#SVGID_5_"  style="overflow:visible;"/>
					</clipPath>
					<path class="st7" d="M65.3,53.6c0-8,2.7-14.5,9.8-14.5c7.1,0,9.8,6.5,9.8,14.5c0,8-6.7,13.1-9.8,13.1
						C72,66.7,65.3,61.6,65.3,53.6"/>
				</g>
				<path class="st8" d="M86.6,55H63.7c-0.6,0-1.1-0.5-1.1-1.1V50c0-0.6,0.5-1.1,1.1-1.1h22.8c0.6,0,1.1,0.5,1.1,1.1v3.8
					C87.7,54.5,87.2,55,86.6,55"/>
				<path class="st6" d="M64.5,50.5c0-8,2.7-14.6,10.7-14.6c8,0,11,6.5,11,14.5c0,8-7.5,14.5-11,14.5c-3.5,0-11-6.5-11-14.5
					L64.5,50.5z"/>
				<path class="st2" d="M80.6,41.3c-1.5,3.2-13.2,4.2-13.2,4.2s-0.9,2.2-1,4.8c0,0.7,0,2.3,0,2.3h-2.1l-0.4-5.5
					c0,0-1.5-11.4,10.5-12.1C86.4,34.3,80.6,41.3,80.6,41.3"/>
				<path class="st2" d="M78.4,42.1c1.2,3.8,5.6,2.7,5.6,5.9c0,3.1,0.2,4.6,0.2,4.6H86c0,0,0-2,0.3-5.6c0.3-3.6-0.9-8.9-4.9-9
					C77.4,37.8,78.4,42.1,78.4,42.1"/>
				<path class="st9" d="M80.5,65.4l-5.6,11l-5.7-11c-6.8,2.1-16.4,3.1-16.4,9.9v6.2c0,9.4,0,9.4,3.1,9.4h38c3.6,0,3.6,0,3.6-9.4
					v-6.2C97.5,68.5,86.8,67.5,80.5,65.4"/>
			</g>
		</g>
	</g>
</g>
<g>
	<path class="st10" d="M29.8,144.9c-2.9-5.1-4.5-11.1-4.5-17.4c0-19.6,15.9-35.6,35.6-35.6c19.6,0,35.6,15.9,35.6,35.6
		c0,6.3-1.7,12.2-4.5,17.4H29.8z"/>
	<g>
		<defs>
			<path id="SVGID_7_" d="M29.8,144.9c-2.9-5.1-4.5-11.1-4.5-17.4c0-19.6,15.9-35.6,35.6-35.6c19.6,0,35.6,15.9,35.6,35.6
				c0,6.3-1.7,12.2-4.5,17.4H29.8z"/>
		</defs>
		<clipPath id="SVGID_8_">
			<use xlink:href="#SVGID_7_"  style="overflow:visible;"/>
		</clipPath>
		<g class="st11">
			<g>
				<rect x="69.2" y="126.8" class="st5" width="11.1" height="23.3"/>
				<rect x="69.2" y="126.5" class="st12" width="11.1" height="23.3"/>
				<g>
					<defs>
						<rect id="SVGID_9_" x="69.2" y="126.5" width="11.1" height="23.3"/>
					</defs>
					<clipPath id="SVGID_10_">
						<use xlink:href="#SVGID_9_"  style="overflow:visible;"/>
					</clipPath>
					<path class="st13" d="M84.6,121.3c0-8.1-2.7-14.6-10-14.6c-7.2,0-10,6.6-10,14.6c0,8.1,6.8,13.3,10,13.3
						C77.8,134.6,84.6,129.4,84.6,121.3"/>
				</g>
				<path class="st12" d="M63,122.7h23.1c0.6,0,1.2-0.5,1.2-1.2v-3.9c0-0.6-0.5-1.2-1.2-1.2H63c-0.6,0-1.2,0.5-1.2,1.2v3.9
					C61.9,122.2,62.4,122.7,63,122.7"/>
				<path class="st12" d="M85.4,118.2c0-8.1-2.8-14.8-10.8-14.8c-8.1,0-11.1,6.6-11.1,14.6c0,8.1,7.6,14.6,11.1,14.6
					c3.5,0,11.1-6.6,11.1-14.6L85.4,118.2z"/>
				<path class="st14" d="M69.1,108.8c1.5,3.3,13.4,4.2,13.4,4.2s0.9,2.3,1,4.9c0,0.7,0,2.3,0,2.3h2.1l0.4-5.6
					c0,0,1.5-11.6-10.6-12.2C63.2,101.8,69.1,108.8,69.1,108.8"/>
				<path class="st14" d="M71.2,109.7c-1.2,3.9-5.7,2.8-5.7,5.9c0,3.2-0.2,4.7-0.2,4.7h-1.8c0,0,0-2-0.3-5.7c-0.3-3.7,0.9-9,5-9.2
					C72.3,105.3,71.2,109.7,71.2,109.7"/>
				<path class="st2" d="M69.1,133.3c0,0,0.2,5.8,5.7,5.8s5.8-5.9,5.8-5.9c6.8,2.1,16.6,3.2,16.6,10v6.3c0,9.5,0,9.5-3.2,9.5H55.6
					c-3.7,0-3.7,0-3.7-9.5v-6.3C51.9,136.4,62.8,135.3,69.1,133.3"/>
			</g>
			<g>
				<g>
					<path class="st15" d="M40.9,113.1v18.6h-7.2v-16.9c0-4.2,3.8-11,12.7-11s13.3,6.3,13.3,13.3v16l-2,1.6H57h-4.8v-23L40.9,113.1z
						"/>
					<rect x="41" y="126.8" class="st6" width="11.8" height="19.2"/>
					<g>
						<defs>
							<rect id="SVGID_11_" x="41" y="126.8" width="11.8" height="19.2"/>
						</defs>
						<clipPath id="SVGID_12_">
							<use xlink:href="#SVGID_11_"  style="overflow:visible;"/>
						</clipPath>
						<path class="st16" d="M47.1,138.3c-3.2,0-10.2-5.5-10.2-13.6s2.7-14.8,10.2-14.8c7,0,9.7,6.8,9.7,14.8S50.4,138.3,47.1,138.3"
							/>
					</g>
					<path class="st6" d="M47.1,135.7c-3.2,0-10.2-6.8-10.2-14.8c0-8,2.7-14.8,10.2-14.8c7,0,9.7,6.8,9.7,14.8
						C56.8,128.9,50.4,135.7,47.1,135.7"/>
					<path class="st17" d="M40.5,113.2c2.9,8,17.4,10.6,17.4,10.6s1.2-13.9-6.2-17.5C41.9,101.7,40.5,113.2,40.5,113.2"/>
					<path class="st9" d="M67.9,147.9c0-6.5-9.3-7.7-15.2-9.4c-2.9,2.4-4.3,3.5-6,3.5c-2.4,0-3.6-1.2-5.9-3.5
						c-6.5,1.8-15.3,2.9-15.3,9.4v5.9c0,8.9,0,8.9,2.9,8.9h36c3.5,0,3.5,0,3.5-8.9V147.9z"/>
					<path class="st17" d="M36,120.2c4.8-2.3,8.7-9,8.7-9l0.9-6.7c0,0-7.1,2-8.7,6.5C35.3,115.5,36,120.2,36,120.2"/>
				</g>
				<path class="st15" d="M57.7,123.1c3.2,0,5.8,2.6,5.8,5.8c0,3.2-2.6,5.8-5.8,5.8V123.1z"/>
				<path class="st15" d="M33.7,131.6c-3.2,0-5.8-2.6-5.8-5.8c0-3.2,2.6-5.8,5.8-5.8V131.6z"/>
			</g>
		</g>
	</g>
</g>
<g>
	<g>
		<path class="st18" d="M29.8,213.6c-2.9-5.1-4.5-11.1-4.5-17.4c0-19.6,15.9-35.6,35.6-35.6c19.6,0,35.6,15.9,35.6,35.6
			c0,6.3-1.7,12.2-4.5,17.4H29.8z"/>
		<g>
			<defs>
				<path id="SVGID_13_" d="M29.8,213.6c-2.9-5.1-4.5-11.1-4.5-17.4c0-19.6,15.9-35.6,35.6-35.6c19.6,0,35.6,15.9,35.6,35.6
					c0,6.3-1.7,12.2-4.5,17.4H29.8z"/>
			</defs>
			<clipPath id="SVGID_14_">
				<use xlink:href="#SVGID_13_"  style="overflow:visible;"/>
			</clipPath>
			<g class="st19">
				<g>
					<rect x="44.4" y="196.5" class="st5" width="10.9" height="23"/>
					<rect x="44.4" y="196.3" class="st6" width="10.9" height="23"/>
					<g>
						<defs>
							<rect id="SVGID_15_" x="44.4" y="196.3" width="10.9" height="23"/>
						</defs>
						<clipPath id="SVGID_16_">
							<use xlink:href="#SVGID_15_"  style="overflow:visible;"/>
						</clipPath>
						<path class="st20" d="M59.5,191.1c0-8-2.7-14.5-9.8-14.5c-7.1,0-9.8,6.5-9.8,14.5c0,8,6.7,13.1,9.8,13.1
							C52.8,204.2,59.5,199.1,59.5,191.1"/>
					</g>
					<path class="st6" d="M38.2,192.5H61c0.6,0,1.1-0.5,1.1-1.1v-3.8c0-0.6-0.5-1.1-1.1-1.1H38.2c-0.6,0-1.1,0.5-1.1,1.1v3.8
						C37.1,192,37.6,192.5,38.2,192.5"/>
					<path class="st6" d="M60.3,188c0-8-2.7-14.6-10.7-14.6c-8,0-11,6.5-11,14.5c0,8,7.5,14.5,11,14.5c3.5,0,11-6.5,11-14.5
						L60.3,188z"/>
					<path class="st21" d="M44.2,178.8c1.5,3.2,13.2,4.2,13.2,4.2s0.9,2.2,1,4.8c0,0.7,0,4.9,0,4.9h2.1l0.4-8.2
						c0,0,1.5-11.4-10.5-12.1C38.4,171.8,44.2,178.8,44.2,178.8"/>
					<path class="st21" d="M46.3,179.6c-1.2,3.8-5.6,2.7-5.6,5.9c0,3.1-0.2,7.3-0.2,7.3h-1.7c0,0,0-4.7-0.3-8.3
						c-0.3-3.6,0.9-8.9,4.9-9C47.4,175.3,46.3,179.6,46.3,179.6"/>
					<path class="st2" d="M44.2,202.9l5.6,11l5.7-11c6.8,2.1,16.4,3.1,16.4,9.9v6.2c0,9.4,0,9.4-3.1,9.4h-38c-3.6,0-3.6,0-3.6-9.4
						v-6.2C27.2,206.1,38,205,44.2,202.9"/>
					<g>
						<defs>
							<path id="SVGID_17_" d="M60.3,188c0-8-2.7-14.6-10.7-14.6c-8,0-11,6.5-11,14.5c0,8,7.5,14.5,11,14.5c3.5,0,11-6.5,11-14.5
								L60.3,188z"/>
						</defs>
						<clipPath id="SVGID_18_">
							<use xlink:href="#SVGID_17_"  style="overflow:visible;"/>
						</clipPath>
						<path class="st22" d="M39.8,189.6c0.8,2.8,2.7,5.1,5.2,6.4c0.6-1.9,2.4-3.4,4.6-3.4c2.1,0,3.9,1.4,4.6,3.4
							c2.5-1.3,4.5-3.6,5.2-6.4c0.2,0.8,0.4,1.7,0.4,2.6c0,5.6-4.6,10.2-10.2,10.2c-5.6,0-10.2-4.6-10.2-10.2
							C39.4,191.3,39.6,190.4,39.8,189.6z"/>
					</g>
				</g>
				<g>
					<circle class="st2" cx="75.7" cy="184.4" r="12.8"/>
					<rect x="69.1" y="196.4" class="st23" width="11" height="18.1"/>
					<g>
						<defs>
							<rect id="SVGID_19_" x="69.1" y="196.4" width="11" height="18.1"/>
						</defs>
						<clipPath id="SVGID_20_">
							<use xlink:href="#SVGID_19_"  style="overflow:visible;"/>
						</clipPath>
						<path class="st24" d="M74.8,207.2c-3,0-9.6-5.2-9.6-12.7c0-7.5,2.5-13.9,9.6-13.9c6.6,0,9.1,6.4,9.1,13.9
							C83.9,202,77.9,207.2,74.8,207.2"/>
					</g>
					<path class="st23" d="M74.8,204.8c-3,0-9.6-6.4-9.6-13.9c0-7.6,2.5-13.9,9.6-13.9c6.6,0,9.1,6.4,9.1,13.9
						C83.9,198.4,77.9,204.8,74.8,204.8"/>
					<path class="st2" d="M69.8,184.5c3.5,7.2,17.3,8.3,17.3,8.3s-0.2-13.1-7.5-15.7C70,173.6,69.8,184.5,69.8,184.5"/>
					<path class="st9" d="M94.4,216.2c0-6.1-8.7-7.2-14.3-8.9c-2.8,2.2-4,3.3-5.7,3.3c-2.2,0-3.4-1.1-5.6-3.3
						c-6.1,1.7-14.3,2.8-14.3,8.9v5.5c0,8.3,0,8.3,2.8,8.3H91c3.3,0,3.3,0,3.3-8.3V216.2z"/>
					<path class="st2" d="M64.4,190.2c4.5-2.2,8.2-8.4,8.2-8.4l0.8-6.3c0,0-6.7,1.9-8.2,6.1C63.7,185.8,64.4,190.2,64.4,190.2"/>
				</g>
			</g>
		</g>
	</g>
	<path class="st21" d="M39.8,189.6c0.8,2.8,2.7,5.1,5.2,6.4c0.6-1.9,2.4-3.4,4.6-3.4c2.1,0,3.9,1.4,4.6,3.4c2.5-1.3,4.5-3.6,5.2-6.4
		c0.2,0.8,0.4,1.7,0.4,2.6c0,5.6-4.6,10.2-10.2,10.2c-5.6,0-10.2-4.6-10.2-10.2C39.4,191.3,39.6,190.4,39.8,189.6z"/>
</g>
<rect x="116.4" y="35" class="st25" width="164.7" height="37.4"/>
<rect x="116.4" y="103.9" class="st25" width="164.7" height="37.4"/>
<rect x="116.4" y="172.8" class="st25" width="164.7" height="37.4"/>
<rect x="116.4" y="35" class="st26" width="65.1" height="37.4"/>
<rect x="116.4" y="103.9" class="st26" width="50.6" height="37.4"/>
<rect x="116.4" y="172.8" class="st26" width="84.5" height="37.4"/>
<rect x="230.9" y="23.8" class="st27" width="4" height="179.9"/>
<g>
	<g>
		<path class="st28" d="M271.9,63.6c8,4.7,14.4,11.1,19.1,19.1c4.7,8,7.1,16.9,7.1,26.7c0,9.5-2.4,18.2-7.1,26.2
			c-4.7,8-11.1,14.4-19.1,19.1c-8,4.7-16.8,7.1-26.5,7.1c-9.6,0-18.4-2.4-26.5-7.1c-8-4.7-14.4-11.1-19.1-19.1
			c-4.7-8-7.1-16.8-7.1-26.5c0-9.6,2.4-18.4,7.1-26.4c4.7-8,11.1-14.4,19.1-19.1c8-4.7,16.8-7.1,26.5-7.1
			C255.1,56.5,263.9,58.9,271.9,63.6z"/>
		<path class="st29" d="M270.5,60.8c8,4.7,14.4,11.1,19.1,19.1c4.7,8,7.1,16.9,7.1,26.7c0,9.5-2.4,18.2-7.1,26.2
			c-4.7,8-11.1,14.4-19.1,19.1c-8,4.7-16.8,7.1-26.5,7.1c-9.6,0-18.4-2.4-26.5-7.1c-8-4.7-14.4-11.1-19.1-19.1
			c-4.7-8-7.1-16.8-7.1-26.5c0-9.6,2.4-18.4,7.1-26.4c4.7-8,11.1-14.4,19.1-19.1c8-4.7,16.8-7.1,26.5-7.1
			C253.7,53.7,262.5,56.1,270.5,60.8z"/>
		<g>
			<defs>
				<path id="SVGID_21_" d="M270.5,60.8c8,4.7,14.4,11.1,19.1,19.1c4.7,8,7.1,16.9,7.1,26.7c0,9.5-2.4,18.2-7.1,26.2
					c-4.7,8-11.1,14.4-19.1,19.1c-8,4.7-16.8,7.1-26.5,7.1c-9.6,0-18.4-2.4-26.5-7.1c-8-4.7-14.4-11.1-19.1-19.1
					c-4.7-8-7.1-16.8-7.1-26.5c0-9.6,2.4-18.4,7.1-26.4c4.7-8,11.1-14.4,19.1-19.1c8-4.7,16.8-7.1,26.5-7.1
					C253.7,53.7,262.5,56.1,270.5,60.8z"/>
			</defs>
			<clipPath id="SVGID_22_">
				<use xlink:href="#SVGID_21_"  style="overflow:visible;"/>
			</clipPath>
			<g class="st30">
				<rect x="248.6" y="33" class="st27" width="12.9" height="144.3"/>
				<g>
					<g>
						<rect x="203.4" y="46" class="st31" width="96.5" height="51.3"/>
						<path class="st32" d="M203.4,46l0,51.3h96.5V46L203.4,46z"/>
						<rect x="203.4" y="46" class="st33" width="18.4" height="51.3"/>
					</g>
					<rect x="230.7" y="57.6" class="st34" width="61" height="10.5"/>
					<rect x="230.7" y="74.8" class="st34" width="61" height="10.5"/>
				</g>
				<g>
					<g>
						<rect x="203.4" y="114.3" class="st31" width="96.5" height="51.3"/>
						<path class="st32" d="M203.4,114.3l0,51.3h96.5v-51.3H203.4z"/>
						<rect x="203.4" y="114.3" class="st33" width="18.4" height="51.3"/>
					</g>
					<rect x="230.7" y="125.9" class="st34" width="61" height="10.5"/>
					<rect x="230.7" y="143.1" class="st34" width="61" height="10.5"/>
				</g>
			</g>
		</g>
	</g>
</g>
</svg>
